<?xml version="1.0" standalone="no"?>
<!DOCTYPE svg PUBLIC "-//W3C//DTD SVG 20010904//EN"
 "http://www.w3.org/TR/2001/REC-SVG-20010904/DTD/svg10.dtd">
<svg version="1.0" xmlns="http://www.w3.org/2000/svg"
 width="512.000000pt" height="512.000000pt" viewBox="0 0 512.000000 512.000000"
 preserveAspectRatio="xMidYMid meet">

<g transform="translate(0.000000,512.000000) scale(0.100000,-0.100000)"
fill="#000000" stroke="none">
<path d="M0 2560 l0 -2560 2560 0 2560 0 0 2560 0 2560 -2560 0 -2560 0 0
-2560z m2819 845 c1041 -433 1291 -541 1314 -565 50 -55 29 -133 -45 -167 -24
-11 -262 -107 -530 -214 l-488 -194 -207 -518 c-130 -325 -216 -528 -231 -542
-54 -54 -136 -35 -171 38 -11 23 -256 610 -545 1303 -352 844 -526 1273 -526
1297 0 61 56 111 114 102 16 -3 607 -246 1315 -540z"/>
<path d="M1702 3621 c34 -98 855 -2048 859 -2043 3 4 80 191 169 417 104 259
172 417 186 430 13 11 208 94 435 184 378 150 410 165 388 176 -41 22 -2020
845 -2031 845 -5 0 -8 -4 -6 -9z"/>
</g>
</svg>
